<svg xmlns="http://www.w3.org/2000/svg" style="display: none;"><symbol id="coins" viewBox="0 0 179.006 179.006"><title>coins</title><path style="fill:#010002;" d="M153.784,21.027c-1.426-0.477-3.109-0.704-5-0.704c-2.971,0-5.257,0.638-6.802,1.903 c-0.913,0.722-1.772,1.957-2.608,3.664h18.879C158.068,23.545,156.589,21.922,153.784,21.027z"/><path style="fill:#010002;" d="M117.995,31.744c1.808,0.776,3.682,1.146,5.651,1.146c2.363,0,4.201-0.442,5.549-1.366 c1.343-0.901,2.285-2.13,2.798-3.664h-16.85C115.256,29.679,116.205,30.968,117.995,31.744z"/><path style="fill:#010002;" d="M137.769,3.168c-22.787,0-41.243,10.615-41.243,23.73s18.456,23.742,41.243,23.742 c22.782,0,41.237-10.627,41.237-23.742S160.551,3.168,137.769,3.168z M170.521,27.865h-6.969 c-0.453,3.998-2.906,6.725-7.393,8.151c-2.429,0.794-5.68,1.181-9.798,1.181v-3.664c3.288-0.119,5.651-0.406,7.166-0.883 c2.703-0.871,4.219-2.464,4.571-4.785h-19.559c-0.973,2.977-2.625,5.191-4.911,6.605c-2.321,1.426-5.49,2.13-9.541,2.13 c-3.652,0-6.945-0.752-9.851-2.297c-2.9-1.528-4.392-3.682-4.451-6.444h-4.779V25.89h4.72c0.34-2.727,1.736-4.833,4.195-6.313 c2.488-1.462,5.734-2.22,9.804-2.303v3.616c-1.838,0.101-3.395,0.376-4.708,0.859c-2.399,0.871-3.688,2.25-3.801,4.135h17.471 c1.575-3.186,3.037-5.352,4.368-6.504c2.261-1.862,5.597-2.781,10-2.781c6.367,0,10.878,1.181,13.557,3.568 c1.486,1.331,2.464,3.234,2.942,5.716h6.969C170.521,25.884,170.521,27.865,170.521,27.865z"/><path style="fill:#010002;" d="M137.769,53.815c-20.926,0-38.134-8.962-40.837-20.568c-0.239,1.044-0.406,2.1-0.406,3.174 c0,13.109,18.456,23.742,41.243,23.742c22.782,0,41.237-10.627,41.237-23.742c0-1.08-0.173-2.13-0.406-3.174 C175.897,44.853,158.683,53.815,137.769,53.815z"/><path style="fill:#010002;" d="M137.769,63.332c-20.926,0-38.134-8.962-40.837-20.568c-0.239,1.044-0.406,2.1-0.406,3.174 c0,13.109,18.456,23.742,41.243,23.742c22.782,0,41.237-10.627,41.237-23.742c0-1.08-0.173-2.13-0.406-3.174 C175.897,54.37,158.683,63.332,137.769,63.332z"/><path style="fill:#010002;" d="M137.769,72.855c-20.926,0-38.134-8.962-40.837-20.568c-0.239,1.044-0.406,2.1-0.406,3.168 c0,13.115,18.456,23.742,41.243,23.742c22.782,0,41.237-10.627,41.237-23.742c0-1.074-0.173-2.124-0.406-3.168 C175.897,63.893,158.683,72.855,137.769,72.855z"/><path style="fill:#010002;" d="M137.769,82.373c-20.926,0-38.134-8.956-40.837-20.568c-0.239,1.044-0.406,2.1-0.406,3.174 c0,13.115,18.456,23.742,41.243,23.742c22.782,0,41.237-10.621,41.237-23.742c0-1.08-0.173-2.13-0.406-3.174 C175.897,73.416,158.683,82.373,137.769,82.373z"/><path style="fill:#010002;" d="M137.769,93.298c-20.926,0-38.134-8.962-40.837-20.568c-0.239,1.044-0.406,2.1-0.406,3.174 c0,13.109,18.456,23.742,41.243,23.742c22.782,0,41.237-10.627,41.237-23.742c0-1.08-0.173-2.13-0.406-3.174 C175.897,84.336,158.683,93.298,137.769,93.298z"/><path style="fill:#010002;" d="M137.769,102.809c-20.926,0-38.134-8.962-40.837-20.562c-0.239,1.044-0.406,2.1-0.406,3.174 c0,13.115,18.456,23.742,41.243,23.742c22.782,0,41.237-10.627,41.237-23.742c0-1.08-0.173-2.13-0.406-3.174 C175.897,93.853,158.683,102.809,137.769,102.809z"/><path style="fill:#010002;" d="M137.769,112.338c-20.926,0-38.134-8.968-40.837-20.568c-0.239,1.038-0.406,2.106-0.406,3.168 c0,13.103,18.456,23.742,41.243,23.742c22.782,0,41.237-10.639,41.237-23.742c0-1.08-0.173-2.124-0.406-3.168 C175.897,103.37,158.683,112.338,137.769,112.338z"/><path style="fill:#010002;" d="M137.769,121.855c-20.926,0-38.134-8.962-40.837-20.556c-0.239,1.038-0.406,2.094-0.406,3.162 c0,13.109,18.456,23.742,41.243,23.742c22.782,0,41.237-10.633,41.237-23.742c0-1.08-0.173-2.124-0.406-3.162 C175.897,112.893,158.683,121.855,137.769,121.855z"/><path style="fill:#010002;" d="M57.27,108.144c-1.432-0.471-3.109-0.698-5.006-0.698c-2.966,0-5.251,0.638-6.796,1.903 c-0.919,0.722-1.772,1.945-2.608,3.658h18.879C61.542,110.662,60.063,109.033,57.27,108.144z"/><path style="fill:#010002;" d="M21.481,118.86c1.808,0.776,3.682,1.14,5.651,1.14c2.363,0,4.195-0.436,5.549-1.36 c1.343-0.901,2.285-2.136,2.798-3.664H18.617C18.742,116.79,19.679,118.09,21.481,118.86z"/><path style="fill:#010002;" d="M41.237,90.291C18.45,90.291,0,100.9,0,114.015c0,13.121,18.45,23.742,41.237,23.742 s41.243-10.621,41.243-23.742C82.48,100.9,64.025,90.291,41.237,90.291z M73.989,114.988H67.02 c-0.448,3.986-2.9,6.713-7.387,8.145c-2.429,0.794-5.68,1.175-9.804,1.175v-3.658c3.288-0.119,5.651-0.406,7.166-0.883 c2.709-0.871,4.231-2.464,4.571-4.779H42.013c-0.973,2.971-2.631,5.185-4.911,6.593c-2.321,1.432-5.49,2.13-9.547,2.13 c-3.652,0-6.939-0.758-9.845-2.297c-2.906-1.533-4.398-3.682-4.457-6.444H8.479v-1.969h4.714c0.352-2.727,1.742-4.839,4.201-6.313 c2.482-1.468,5.734-2.22,9.798-2.303v3.61c-1.832,0.101-3.401,0.37-4.708,0.859c-2.393,0.871-3.682,2.25-3.801,4.129h17.483 c1.569-3.18,3.031-5.346,4.362-6.504c2.255-1.862,5.597-2.781,9.995-2.781c6.373,0,10.884,1.181,13.563,3.574 c1.48,1.337,2.458,3.24,2.936,5.71h6.969V114.988z"/><path style="fill:#010002;" d="M41.237,140.931c-20.926,0-38.128-8.968-40.831-20.568C0.161,121.402,0,122.458,0,123.532 c0,13.109,18.45,23.742,41.237,23.742s41.243-10.627,41.243-23.742c0-1.086-0.173-2.13-0.406-3.168 C79.377,131.963,62.157,140.931,41.237,140.931z"/><path style="fill:#010002;" d="M41.237,150.449c-20.926,0-38.128-8.962-40.831-20.562C0.161,130.919,0,131.981,0,133.055 c0,13.109,18.45,23.742,41.237,23.742S82.48,146.17,82.48,133.055c0-1.08-0.173-2.13-0.406-3.168 C79.377,141.486,62.157,150.449,41.237,150.449z"/><path style="fill:#010002;" d="M41.237,159.978c-20.926,0-38.128-8.962-40.831-20.568C0.161,140.448,0,141.504,0,142.578 c0,13.109,18.45,23.742,41.237,23.742s41.243-10.627,41.243-23.742c0-1.08-0.173-2.124-0.406-3.168 C79.377,151.015,62.157,159.978,41.237,159.978z"/><path style="fill:#010002;" d="M41.237,169.489c-20.926,0-38.128-8.968-40.831-20.568C0.161,149.959,0,151.027,0,152.096 c0,13.109,18.45,23.742,41.237,23.742s41.243-10.627,41.243-23.742c0-1.086-0.173-2.136-0.406-3.174 C79.377,160.521,62.157,169.489,41.237,169.489z"/><path style="fill:#010002;" d="M57.27,34.852c-1.432-0.477-3.109-0.704-5-0.704c-2.971,0-5.257,0.638-6.802,1.903 c-0.913,0.722-1.772,1.957-2.608,3.664h18.879C61.542,37.371,60.063,35.742,57.27,34.852z"/><path style="fill:#010002;" d="M21.481,45.569c1.808,0.77,3.688,1.146,5.651,1.146c2.363,0,4.201-0.442,5.549-1.366 c1.349-0.901,2.285-2.13,2.798-3.664H18.617C18.742,43.498,19.679,44.793,21.481,45.569z"/><path style="fill:#010002;" d="M41.237,16.994C18.456,16.994,0,27.609,0,40.724s18.456,23.742,41.237,23.742 c22.787,0,41.243-10.627,41.243-23.742S64.025,16.994,41.237,16.994z M74.001,41.685H67.02c-0.448,3.998-2.9,6.719-7.387,8.151 c-2.429,0.788-5.68,1.181-9.804,1.181v-3.664c3.288-0.119,5.651-0.406,7.166-0.883c2.709-0.871,4.231-2.464,4.571-4.785H42.013 c-0.973,2.977-2.619,5.191-4.911,6.605c-2.315,1.426-5.49,2.13-9.547,2.13c-3.652,0-6.939-0.758-9.845-2.297 c-2.906-1.528-4.398-3.682-4.457-6.444H8.479V39.71h4.714c0.352-2.727,1.742-4.833,4.201-6.313c2.482-1.462,5.74-2.22,9.798-2.303 v3.616c-1.832,0.095-3.401,0.376-4.708,0.859c-2.393,0.871-3.682,2.25-3.801,4.135h17.483c1.575-3.186,3.031-5.352,4.362-6.51 c2.255-1.856,5.597-2.775,9.995-2.775c6.373,0,10.884,1.181,13.563,3.568c1.48,1.331,2.458,3.234,2.936,5.716h6.981L74.001,41.685 L74.001,41.685z"/><path style="fill:#010002;" d="M41.237,67.634c-20.914,0-38.128-8.962-40.831-20.568C0.173,48.111,0,49.167,0,50.241 C0,63.35,18.456,73.983,41.237,73.983c22.787,0,41.243-10.627,41.243-23.742c0-1.08-0.167-2.13-0.406-3.174 C79.377,58.672,62.163,67.634,41.237,67.634z"/><path style="fill:#010002;" d="M41.237,77.158c-20.914,0-38.128-8.962-40.831-20.568C0.173,57.634,0,58.69,0,59.758 C0,72.873,18.456,83.5,41.237,83.5c22.787,0,41.243-10.627,41.243-23.742c0-1.074-0.167-2.124-0.406-3.168 C79.377,68.195,62.163,77.158,41.237,77.158z"/></symbol><symbol id="dollar-in-bubble-speech" viewBox="0 0 155.139 155.139"><title>dollar-in-bubble-speech</title><path style="fill:#010002;" d="M87.993,67.879c-1.617-1.158-4.35-2.267-8.198-3.318v24.237c5.269-0.245,8.879-2.154,10.89-5.758 c1.038-1.862,1.545-3.974,1.545-6.385C92.23,72.802,90.822,69.878,87.993,67.879z"/><path style="fill:#010002;" d="M66.757,37.084c-1.718,2.321-2.578,4.738-2.578,7.262c0,3.031,1.008,5.418,3.037,7.13 c2.029,1.724,4.762,2.924,8.21,3.604V33.414C71.358,33.558,68.482,34.799,66.757,37.084z"/><path style="fill:#010002;" d="M139.828,0H15.311C9.469,0,4.732,4.75,4.732,10.591v103.77c0,5.842,4.738,10.579,10.579,10.579 h27.34v30.198l30.192-30.198h66.984c5.842,0,10.579-4.744,10.579-10.579V10.591C150.401,4.75,145.663,0,139.828,0z M92.558,91.812 c-2.936,1.903-7.178,3.139-12.763,3.777v8.95h-4.362v-8.95c-8.944-0.591-15.037-3.741-18.211-9.487 c-1.76-3.109-2.643-7.315-2.643-12.584h8.187c0.227,4.195,0.889,7.292,1.981,9.219c1.903,3.479,5.478,5.418,10.687,5.842V63.487 c-6.683-1.259-11.6-3.365-14.792-6.331c-3.162-2.948-4.756-7.041-4.756-12.262c0-4.666,1.707-8.867,5.132-12.614 c3.419-3.753,8.228-5.663,14.41-5.722v-6.134h4.362v6.027c6.11,0.442,10.818,2.25,14.07,5.406 c3.294,3.174,4.988,7.369,5.143,12.572h-8.079c-0.203-2.333-0.835-4.35-1.874-6.015c-1.939-3.121-5.03-4.756-9.273-4.911v22.465 c7.118,1.987,11.981,3.855,14.523,5.621c4.135,2.858,6.235,7.148,6.235,12.805C100.554,82.564,97.892,88.375,92.558,91.812z"/></symbol><symbol id="money-1" viewBox="0 0 155.139 155.139"><title>money-1</title><path style="fill:#010002;" d="M25.138,139.249c7.781-5.436,14.046-11.438,18.79-18.02c4.744-6.575,7.118-13.706,7.118-21.421 c0-2.202-0.442-4.779-1.354-7.739c-0.543-1.862-1.462-4.404-2.781-7.632H24.106V73.703h16.212c0,0.346-1.152-1.82-3.455-6.456 c-2.321-4.642-3.849-8.037-4.6-10.162c-0.68-1.993-1.283-4.326-1.754-6.969c-0.477-2.649-0.716-5.49-0.716-8.521 c0-10.734,4.362-20.347,13.109-28.85C51.625,4.248,64.156,0,80.457,0c15.347,0,26.97,4.201,34.847,12.59 c7.864,8.389,11.91,20.263,12.131,35.616h-19.088c0-10.394-2.446-18.282-7.292-23.694c-4.851-5.394-12.232-8.097-22.149-8.097 c-9.631,0-16.916,2.53-21.875,7.584c-4.953,5.06-7.435,11.2-7.435,18.426c0,3.574,0.77,7.256,2.327,11.045 c1.557,3.783,4.839,10.532,9.845,20.24h33.868v10.734H66.423c0.68,3.156,1.193,5.639,1.504,7.423 c0.304,1.796,0.459,3.646,0.459,5.585c0,6.874-2.065,13.676-6.194,20.389c-4.123,6.701-10.603,13.36-19.404,19.971 c4.744-2.399,9.422-4.32,14.04-5.728c4.6-1.402,9.111-2.112,13.521-2.112c4.947,0,11.504,1.223,19.661,3.67 c8.145,2.429,13.509,3.652,16.039,3.652c3.24,0,6.206-0.621,8.879-1.862c1.635-0.758,4.165-2.345,7.536-4.756l8.568,13.939 c-3.855,3.109-7.303,5.406-10.317,6.922c-5.018,2.399-10.353,3.604-15.991,3.604c-4.123,0-11.063-1.581-20.806-4.75 c-9.732-3.162-17.417-4.75-23.062-4.75c-5.233,0-10.185,0.889-14.863,2.685c-2.751,1.098-6.295,2.948-10.621,5.573L25.138,139.249z "/></symbol><symbol id="money-2" viewBox="0 0 60.731 60.731"><title>money-2</title><path d="M18.417,8.556c2.474-2.708,5.941-4.083,10.399-4.127V0h3.163v4.359c4.416,0.31,7.806,1.609,10.164,3.898 c2.365,2.292,3.6,5.316,3.714,9.079h-5.824c-0.152-1.686-0.613-3.139-1.363-4.358c-1.398-2.24-3.63-3.416-6.688-3.528v16.206 c5.146,1.441,8.641,2.794,10.481,4.06c2.993,2.086,4.491,5.17,4.491,9.249c0,5.901-1.913,10.094-5.757,12.578 c-2.126,1.378-5.203,2.285-9.216,2.729v6.46h-3.163v-6.46c-6.456-0.42-10.837-2.701-13.146-6.855 c-1.264-2.239-1.896-5.269-1.896-9.083h5.889c0.178,3.038,0.659,5.256,1.441,6.656c1.385,2.505,3.954,3.917,7.71,4.227V31.082 c-4.816-0.913-8.372-2.431-10.665-4.562c-2.296-2.13-3.446-5.08-3.446-8.853C14.706,14.3,15.942,11.258,18.417,8.556z M22.893,22.433c1.468,1.242,3.441,2.106,5.924,2.595V9.388c-2.931,0.112-5.015,1-6.257,2.663 c-1.243,1.663-1.865,3.406-1.865,5.225C20.695,19.466,21.429,21.186,22.893,22.433z M39.833,45.225 c0.75-1.328,1.129-2.874,1.129-4.626c0-2.774-1.021-4.882-3.063-6.323c-1.173-0.84-3.15-1.643-5.922-2.391V49.39 C35.771,49.207,38.392,47.82,39.833,45.225z"/></symbol><symbol id="money-3" viewBox="0 0 70.074 70.074"><title>money-3</title><polygon points="4.125,16.253 4.125,18.313 63.893,18.313 63.893,53.819 65.95,53.819 65.95,16.253 "/><polygon points="8.243,12.13 8.243,14.193 68.015,14.193 68.015,49.692 70.074,49.692 70.074,12.13 "/><g> <path d="M0,20.376v37.567h61.83V20.376H0z M30.912,53.044c-7.666,0-13.884-6.219-13.884-13.883c0-7.671,6.218-13.89,13.884-13.89 c7.67,0,13.888,6.218,13.888,13.89C44.805,46.825,38.586,53.044,30.912,53.044z"/> <path d="M35.306,38.924c-0.668-0.461-1.937-0.953-3.806-1.474v-5.885c1.112,0.04,1.92,0.464,2.427,1.28 c0.274,0.441,0.439,0.972,0.493,1.584h2.117c-0.045-1.366-0.493-2.467-1.351-3.296c-0.854-0.832-2.088-1.304-3.686-1.416v-1.582 h-1.146v1.607c-1.618,0.017-2.875,0.517-3.777,1.5c-0.896,0.981-1.345,2.086-1.345,3.31c0,1.37,0.417,2.442,1.249,3.212 c0.831,0.771,2.126,1.321,3.873,1.656v6.581c-1.364-0.114-2.292-0.627-2.796-1.53c-0.288-0.507-0.462-1.314-0.525-2.418h-2.14 c0,1.392,0.228,2.483,0.689,3.298c0.836,1.511,2.427,2.336,4.772,2.489v2.34H31.5v-2.34c1.455-0.162,2.572-0.493,3.345-0.99 c1.396-0.901,2.093-2.423,2.093-4.566C36.934,40.799,36.395,39.679,35.306,38.924z M30.354,37.222 c-0.902-0.178-1.616-0.492-2.151-0.939c-0.535-0.451-0.8-1.078-0.8-1.875c0-0.66,0.227-1.292,0.675-1.896 c0.451-0.604,1.212-0.925,2.275-0.967V37.222z M34.351,44.554c-0.523,0.938-1.474,1.443-2.85,1.505v-6.35 c1.007,0.273,1.72,0.561,2.148,0.866c0.739,0.529,1.114,1.291,1.114,2.297C34.763,43.509,34.624,44.07,34.351,44.554z"/> </g></symbol><symbol id="money" viewBox="0 0 155.139 155.139"><title>money</title><path style="fill:#010002;" d="M37.114,0l40.354,74.556L117.995,0h24.613l-29.065,49.251h19.183V64.15h-27.979L90.553,88.226 h38.528v14.899H87.892v52.013H67.02v-52.013H26.946V88.226h37.43L50.217,64.15H21.749V49.251h19.715L12.53,0H37.114z"/></symbol><symbol id="up-arrow" viewBox="0 0 70.074 70.074"><title>up-arrow</title><path d="M39.69,46.233c-0.885,1.538-2.162,2.302-3.84,2.302c-1.829,0-3.198-0.728-4.116-2.183 c-0.551-0.869-0.938-1.897-1.159-3.086h7.126l0.568-1.935h-7.897c-0.009-0.219-0.014-0.445-0.014-0.685 c0-0.516,0.014-1.004,0.045-1.469h7.298l0.57-1.935h-7.596c0.243-1.211,0.648-2.191,1.212-2.956 c1.019-1.391,2.357-2.084,4.018-2.084c1.357,0,2.406,0.376,3.164,1.128c0.75,0.752,1.254,1.778,1.496,3.065h2.222 c-0.128-1.701-0.78-3.215-1.957-4.549c-1.177-1.333-2.824-1.999-4.951-1.999c-2.494,0-4.452,1.023-5.872,3.079 c-0.839,1.217-1.415,2.656-1.724,4.316h-2.887l-0.573,1.935h3.243c-0.02,0.335-0.029,0.671-0.029,1.006 c0,0.393,0.009,0.775,0.029,1.143h-2.67l-0.573,1.935h3.434c0.35,2.374,1.155,4.218,2.41,5.543c1.324,1.407,2.964,2.11,4.915,2.11 c2.261,0,4.057-0.855,5.391-2.578c1.12-1.423,1.774-3.188,1.978-5.301H40.73C40.498,44.363,40.151,45.427,39.69,46.233z"/><path d="M35.037,5.202L0,30.671h8.353l0.441-0.322v34.522H61.27V30.35l0.447,0.322h8.357L35.037,5.202z M35.037,55.427 c-8.309,0-15.038-6.734-15.038-15.037c0-8.305,6.729-15.039,15.038-15.039c8.308,0,15.037,6.734,15.037,15.039 C50.074,48.692,43.345,55.427,35.037,55.427z"/></symbol></svg>